<mxfile host="app.diagrams.net" agent="Mozilla/5.0 (Windows NT 10.0; Win64; x64) AppleWebKit/537.36 (KHTML, like Gecko) Chrome/138.0.0.0 Safari/537.36 Edg/138.0.0.0" version="28.0.7">
  <diagram name="Page-1" id="ZadXidhB58ZYR8z1XZ_M">
    <mxGraphModel dx="1032" dy="564" grid="1" gridSize="10" guides="1" tooltips="1" connect="1" arrows="1" fold="1" page="1" pageScale="1" pageWidth="850" pageHeight="1100" math="0" shadow="0">
      <root>
        <mxCell id="0" />
        <mxCell id="1" parent="0" />
        <mxCell id="agfARySzrE5LujmaJpMj-1" value="Student Information System" style="rounded=0;whiteSpace=wrap;html=1;strokeColor=#FFE599;fillColor=#FF9999;" vertex="1" parent="1">
          <mxGeometry x="150" y="20" width="520" height="40" as="geometry" />
        </mxCell>
        <mxCell id="agfARySzrE5LujmaJpMj-4" value="" style="edgeStyle=orthogonalEdgeStyle;rounded=0;orthogonalLoop=1;jettySize=auto;html=1;" edge="1" parent="1" source="agfARySzrE5LujmaJpMj-2" target="agfARySzrE5LujmaJpMj-3">
          <mxGeometry relative="1" as="geometry" />
        </mxCell>
        <mxCell id="agfARySzrE5LujmaJpMj-8" value="" style="edgeStyle=orthogonalEdgeStyle;rounded=0;orthogonalLoop=1;jettySize=auto;html=1;" edge="1" parent="1" source="agfARySzrE5LujmaJpMj-2" target="agfARySzrE5LujmaJpMj-7">
          <mxGeometry relative="1" as="geometry" />
        </mxCell>
        <mxCell id="agfARySzrE5LujmaJpMj-2" value="Admin" style="rounded=0;whiteSpace=wrap;html=1;strokeColor=#FFE599;fillColor=#FF9999;" vertex="1" parent="1">
          <mxGeometry x="60" y="90" width="100" height="30" as="geometry" />
        </mxCell>
        <mxCell id="agfARySzrE5LujmaJpMj-6" value="" style="edgeStyle=orthogonalEdgeStyle;rounded=0;orthogonalLoop=1;jettySize=auto;html=1;" edge="1" parent="1" source="agfARySzrE5LujmaJpMj-3" target="agfARySzrE5LujmaJpMj-5">
          <mxGeometry relative="1" as="geometry" />
        </mxCell>
        <mxCell id="agfARySzrE5LujmaJpMj-3" value="Forgot Password" style="ellipse;whiteSpace=wrap;html=1;rounded=0;strokeColor=#E6D0DE;fillColor=#B5739D;" vertex="1" parent="1">
          <mxGeometry x="70" y="175" width="80" height="80" as="geometry" />
        </mxCell>
        <mxCell id="agfARySzrE5LujmaJpMj-5" value="" style="ellipse;whiteSpace=wrap;html=1;rounded=0;strokeColor=#E6D0DE;fillColor=#B5739D;" vertex="1" parent="1">
          <mxGeometry x="70" y="335" width="80" height="80" as="geometry" />
        </mxCell>
        <mxCell id="agfARySzrE5LujmaJpMj-10" value="" style="edgeStyle=orthogonalEdgeStyle;rounded=0;orthogonalLoop=1;jettySize=auto;html=1;" edge="1" parent="1" source="agfARySzrE5LujmaJpMj-7" target="agfARySzrE5LujmaJpMj-9">
          <mxGeometry relative="1" as="geometry" />
        </mxCell>
        <mxCell id="agfARySzrE5LujmaJpMj-7" value="Login to System" style="ellipse;whiteSpace=wrap;html=1;rounded=0;strokeColor=#E6D0DE;fillColor=#B5739D;" vertex="1" parent="1">
          <mxGeometry x="250" y="65" width="80" height="80" as="geometry" />
        </mxCell>
        <mxCell id="agfARySzrE5LujmaJpMj-9" value="Check Credentials" style="ellipse;whiteSpace=wrap;html=1;rounded=0;direction=south;strokeColor=#E6D0DE;fillColor=#B5739D;" vertex="1" parent="1">
          <mxGeometry x="250" y="175" width="80" height="80" as="geometry" />
        </mxCell>
        <mxCell id="agfARySzrE5LujmaJpMj-40" style="edgeStyle=orthogonalEdgeStyle;rounded=0;orthogonalLoop=1;jettySize=auto;html=1;exitX=0.5;exitY=1;exitDx=0;exitDy=0;entryX=0.5;entryY=0;entryDx=0;entryDy=0;" edge="1" parent="1" source="agfARySzrE5LujmaJpMj-11" target="agfARySzrE5LujmaJpMj-12">
          <mxGeometry relative="1" as="geometry" />
        </mxCell>
        <mxCell id="agfARySzrE5LujmaJpMj-11" value="Check Roles Of Access" style="ellipse;whiteSpace=wrap;html=1;aspect=fixed;strokeColor=#E6D0DE;fillColor=#B5739D;" vertex="1" parent="1">
          <mxGeometry x="420" y="65" width="80" height="80" as="geometry" />
        </mxCell>
        <mxCell id="agfARySzrE5LujmaJpMj-50" value="" style="edgeStyle=orthogonalEdgeStyle;rounded=0;orthogonalLoop=1;jettySize=auto;html=1;entryX=0;entryY=0.75;entryDx=0;entryDy=0;" edge="1" parent="1" source="agfARySzrE5LujmaJpMj-12" target="agfARySzrE5LujmaJpMj-21">
          <mxGeometry relative="1" as="geometry">
            <mxPoint x="585" y="225" as="targetPoint" />
            <Array as="points">
              <mxPoint x="630" y="225" />
              <mxPoint x="630" y="230" />
            </Array>
          </mxGeometry>
        </mxCell>
        <mxCell id="agfARySzrE5LujmaJpMj-12" value="Manage Modules" style="ellipse;whiteSpace=wrap;html=1;aspect=fixed;strokeColor=#E6D0DE;fillColor=#B5739D;" vertex="1" parent="1">
          <mxGeometry x="410" y="180" width="90" height="90" as="geometry" />
        </mxCell>
        <mxCell id="agfARySzrE5LujmaJpMj-15" value="Manage System Admins" style="rounded=0;whiteSpace=wrap;html=1;strokeColor=#FFE599;fillColor=#FF9999;" vertex="1" parent="1">
          <mxGeometry x="40" y="480" width="150" height="40" as="geometry" />
        </mxCell>
        <mxCell id="agfARySzrE5LujmaJpMj-16" value="Manage Roles Of User" style="rounded=0;whiteSpace=wrap;html=1;strokeColor=#FFE599;fillColor=#FF9999;" vertex="1" parent="1">
          <mxGeometry x="240" y="480" width="150" height="40" as="geometry" />
        </mxCell>
        <mxCell id="agfARySzrE5LujmaJpMj-17" value="Manage User Permission" style="rounded=0;whiteSpace=wrap;html=1;strokeColor=#FFE599;fillColor=#FF9999;" vertex="1" parent="1">
          <mxGeometry x="420" y="480" width="140" height="40" as="geometry" />
        </mxCell>
        <mxCell id="agfARySzrE5LujmaJpMj-18" value="Manage Timetable Details" style="rounded=0;whiteSpace=wrap;html=1;strokeColor=#FFE599;fillColor=#FF9999;" vertex="1" parent="1">
          <mxGeometry x="640" y="60" width="160" height="40" as="geometry" />
        </mxCell>
        <mxCell id="agfARySzrE5LujmaJpMj-19" value="Manage Attendance Details" style="rounded=0;whiteSpace=wrap;html=1;strokeColor=#FFE599;fillColor=#FF9999;" vertex="1" parent="1">
          <mxGeometry x="640" y="130" width="160" height="50" as="geometry" />
        </mxCell>
        <mxCell id="agfARySzrE5LujmaJpMj-21" value="Manage Class Details" style="rounded=0;whiteSpace=wrap;html=1;strokeColor=#FFE599;fillColor=#FF9999;" vertex="1" parent="1">
          <mxGeometry x="640" y="200" width="160" height="40" as="geometry" />
        </mxCell>
        <mxCell id="agfARySzrE5LujmaJpMj-23" value="Manage Student Details" style="rounded=0;whiteSpace=wrap;html=1;strokeColor=#FFE599;fillColor=#FF9999;" vertex="1" parent="1">
          <mxGeometry x="640" y="270" width="160" height="40" as="geometry" />
        </mxCell>
        <mxCell id="agfARySzrE5LujmaJpMj-25" value="Manage Fees Details" style="rounded=0;whiteSpace=wrap;html=1;strokeColor=#FFE599;fillColor=#FF9999;" vertex="1" parent="1">
          <mxGeometry x="640" y="330" width="160" height="30" as="geometry" />
        </mxCell>
        <mxCell id="agfARySzrE5LujmaJpMj-27" value="Manage Teacher Profiles" style="rounded=0;whiteSpace=wrap;html=1;strokeColor=#FFE599;fillColor=#FF9999;" vertex="1" parent="1">
          <mxGeometry x="640" y="390" width="160" height="30" as="geometry" />
        </mxCell>
        <mxCell id="agfARySzrE5LujmaJpMj-29" value="Manage Report" style="rounded=0;whiteSpace=wrap;html=1;strokeColor=#FFE599;fillColor=#FF9999;" vertex="1" parent="1">
          <mxGeometry x="640" y="440" width="160" height="30" as="geometry" />
        </mxCell>
        <mxCell id="agfARySzrE5LujmaJpMj-38" value="" style="endArrow=classic;html=1;rounded=0;" edge="1" parent="1">
          <mxGeometry width="50" height="50" relative="1" as="geometry">
            <mxPoint x="320" y="190" as="sourcePoint" />
            <mxPoint x="420" y="105" as="targetPoint" />
          </mxGeometry>
        </mxCell>
        <mxCell id="agfARySzrE5LujmaJpMj-43" value="" style="endArrow=classic;html=1;rounded=0;" edge="1" parent="1">
          <mxGeometry width="50" height="50" relative="1" as="geometry">
            <mxPoint x="470" y="180" as="sourcePoint" />
            <mxPoint x="630" y="70" as="targetPoint" />
          </mxGeometry>
        </mxCell>
        <mxCell id="agfARySzrE5LujmaJpMj-46" value="" style="endArrow=classic;html=1;rounded=0;entryX=0;entryY=0.5;entryDx=0;entryDy=0;" edge="1" parent="1" target="agfARySzrE5LujmaJpMj-19">
          <mxGeometry width="50" height="50" relative="1" as="geometry">
            <mxPoint x="500" y="200" as="sourcePoint" />
            <mxPoint x="560" y="150" as="targetPoint" />
          </mxGeometry>
        </mxCell>
        <mxCell id="agfARySzrE5LujmaJpMj-51" value="" style="endArrow=classic;html=1;rounded=0;" edge="1" parent="1" source="agfARySzrE5LujmaJpMj-12">
          <mxGeometry width="50" height="50" relative="1" as="geometry">
            <mxPoint x="490" y="300" as="sourcePoint" />
            <mxPoint x="630" y="290" as="targetPoint" />
          </mxGeometry>
        </mxCell>
        <mxCell id="agfARySzrE5LujmaJpMj-52" value="" style="endArrow=classic;html=1;rounded=0;entryX=0;entryY=0.75;entryDx=0;entryDy=0;" edge="1" parent="1" source="agfARySzrE5LujmaJpMj-12" target="agfARySzrE5LujmaJpMj-25">
          <mxGeometry width="50" height="50" relative="1" as="geometry">
            <mxPoint x="470" y="335" as="sourcePoint" />
            <mxPoint x="520" y="285" as="targetPoint" />
          </mxGeometry>
        </mxCell>
        <mxCell id="agfARySzrE5LujmaJpMj-53" value="" style="endArrow=classic;html=1;rounded=0;entryX=0;entryY=0.75;entryDx=0;entryDy=0;exitX=0.751;exitY=0.98;exitDx=0;exitDy=0;exitPerimeter=0;" edge="1" parent="1" source="agfARySzrE5LujmaJpMj-12" target="agfARySzrE5LujmaJpMj-27">
          <mxGeometry width="50" height="50" relative="1" as="geometry">
            <mxPoint x="520" y="410" as="sourcePoint" />
            <mxPoint x="570" y="360" as="targetPoint" />
          </mxGeometry>
        </mxCell>
        <mxCell id="agfARySzrE5LujmaJpMj-54" value="" style="endArrow=classic;html=1;rounded=0;entryX=0;entryY=0.75;entryDx=0;entryDy=0;exitX=0.5;exitY=1;exitDx=0;exitDy=0;" edge="1" parent="1" source="agfARySzrE5LujmaJpMj-12" target="agfARySzrE5LujmaJpMj-29">
          <mxGeometry width="50" height="50" relative="1" as="geometry">
            <mxPoint x="520" y="430" as="sourcePoint" />
            <mxPoint x="570" y="380" as="targetPoint" />
          </mxGeometry>
        </mxCell>
        <mxCell id="agfARySzrE5LujmaJpMj-55" value="" style="endArrow=classic;html=1;rounded=0;entryX=0.25;entryY=0;entryDx=0;entryDy=0;exitX=0.5;exitY=1;exitDx=0;exitDy=0;" edge="1" parent="1" source="agfARySzrE5LujmaJpMj-12" target="agfARySzrE5LujmaJpMj-17">
          <mxGeometry width="50" height="50" relative="1" as="geometry">
            <mxPoint x="400" y="350" as="sourcePoint" />
            <mxPoint x="450" y="300" as="targetPoint" />
          </mxGeometry>
        </mxCell>
        <mxCell id="agfARySzrE5LujmaJpMj-56" value="" style="endArrow=classic;html=1;rounded=0;entryX=0.576;entryY=-0.095;entryDx=0;entryDy=0;entryPerimeter=0;" edge="1" parent="1" source="agfARySzrE5LujmaJpMj-12" target="agfARySzrE5LujmaJpMj-16">
          <mxGeometry width="50" height="50" relative="1" as="geometry">
            <mxPoint x="340" y="370" as="sourcePoint" />
            <mxPoint x="390" y="320" as="targetPoint" />
          </mxGeometry>
        </mxCell>
        <mxCell id="agfARySzrE5LujmaJpMj-57" value="" style="endArrow=classic;html=1;rounded=0;" edge="1" parent="1" source="agfARySzrE5LujmaJpMj-12">
          <mxGeometry width="50" height="50" relative="1" as="geometry">
            <mxPoint x="240" y="350" as="sourcePoint" />
            <mxPoint x="120" y="470" as="targetPoint" />
          </mxGeometry>
        </mxCell>
      </root>
    </mxGraphModel>
  </diagram>
</mxfile>
